<svg xmlns="http://www.w3.org/2000/svg" viewBox="0 0 32 32" width="32" height="32">
    <path
        d="M20.31,10.06l1.83-1.84a1,1,0,0,0,0-1.41,1,1,0,0,0-1.41,0l-1.5,1.5-.26,0h-12a3,3,0,0,0-3,3v9.42a3,3,0,0,0,.83,2.06l-1,1a1,1,0,0,0,0,1.41,1,1,0,0,0,1.42,0l15.1-15.1ZM6.19,21.35a1,1,0,0,1-.25-.64V11.29a1,1,0,0,1,1-1H17.25Zm21.34-12a1,1,0,0,0-1,0l-5.09,3.34a.94.94,0,0,0-.45-.12,1,1,0,0,0-1,1,8.06,8.06,0,0,1-8.06,8.06h0a1,1,0,1,0,0,2H19a3,3,0,0,0,3-3V19.59l4.54,3a1,1,0,0,0,1,.05,1,1,0,0,0,.53-.89V10.27A1,1,0,0,0,27.53,9.38ZM26.06,17.1a1.5,1.5,0,0,1-2.33,1.25L22,17.19V14.81l4.09-2.69Z"
        fill="currentColor">
    </path>
</svg>